<svg xmlns="http://www.w3.org/2000/svg" xmlns:xlink="http://www.w3.org/1999/xlink" width="500" zoomAndPan="magnify" viewBox="0 0 375 374.999991" height="500" preserveAspectRatio="xMidYMid meet" version="1.2"><defs><clipPath id="6a54a83dc1"><path d="M 67.105469 144.390625 L 307.382812 144.390625 L 307.382812 227.640625 L 67.105469 227.640625 Z M 67.105469 144.390625 "/></clipPath></defs><g id="2a1275a38b"><g clip-rule="nonzero" clip-path="url(#6a54a83dc1)"><path style="fill:none;stroke-width:4;stroke-linecap:butt;stroke-linejoin:miter;stroke:#f1f1f1;stroke-opacity:1;stroke-miterlimit:4;" d="M 0.00120555 0.000495019 L 321.047465 0.000495019 L 321.047465 111.234874 L 0.00120555 111.234874 Z M 0.00120555 0.000495019 " transform="matrix(0.74842,0,0,0.74842,67.104566,144.390255)"/></g><g style="fill:#f1f1f1;fill-opacity:1;"><g transform="translate(80.842778, 202.003976)"><path style="stroke:none" d="M 19.859375 0.75 L 4.078125 -36.515625 L 4.078125 0 L 3.40625 0 L 3.40625 -38.078125 L 14.625 -38.078125 L 25.640625 -14.078125 L 35.703125 -38.078125 L 45.96875 -38.078125 L 45.96875 0 L 35.703125 0 L 35.703125 -36.375 Z M 19.859375 0.75 "/></g></g><g style="fill:#f1f1f1;fill-opacity:1;"><g transform="translate(128.981145, 202.003976)"><path style="stroke:none" d="M 3.40625 0 L 3.40625 -38.078125 L 12.4375 -38.078125 L 12.4375 0 Z M 3.40625 0 "/></g></g><g style="fill:#f1f1f1;fill-opacity:1;"><g transform="translate(143.599346, 202.003976)"><path style="stroke:none" d="M 18.359375 0.6875 C 15.597656 0.6875 12.96875 0.253906 10.46875 -0.609375 C 7.976562 -1.472656 5.953125 -2.695312 4.390625 -4.28125 C 2.828125 -5.863281 2.046875 -7.769531 2.046875 -10 C 2.046875 -11.351562 2.5 -12.4375 3.40625 -13.25 C 4.3125 -14.070312 5.421875 -14.484375 6.734375 -14.484375 C 8.410156 -14.484375 9.742188 -13.960938 10.734375 -12.921875 C 11.734375 -11.878906 12.234375 -10.65625 12.234375 -9.25 C 12.234375 -9.25 12.0625 -9.191406 11.71875 -9.078125 C 11.382812 -8.960938 11.023438 -8.742188 10.640625 -8.421875 C 10.253906 -8.109375 9.992188 -7.59375 9.859375 -6.875 C 9.816406 -6.6875 9.796875 -6.5 9.796875 -6.3125 C 9.796875 -6.132812 9.796875 -5.957031 9.796875 -5.78125 C 9.796875 -4.46875 10.210938 -3.398438 11.046875 -2.578125 C 11.890625 -1.765625 12.941406 -1.164062 14.203125 -0.78125 C 15.472656 -0.394531 16.722656 -0.203125 17.953125 -0.203125 C 18.898438 -0.203125 20 -0.335938 21.25 -0.609375 C 22.5 -0.878906 23.585938 -1.390625 24.515625 -2.140625 C 25.441406 -2.890625 25.90625 -3.941406 25.90625 -5.296875 C 25.90625 -6.753906 25.382812 -8.023438 24.34375 -9.109375 C 23.300781 -10.203125 21.941406 -11.203125 20.265625 -12.109375 C 18.585938 -13.015625 16.796875 -13.929688 14.890625 -14.859375 C 12.984375 -15.785156 11.171875 -16.78125 9.453125 -17.84375 C 7.734375 -18.914062 6.28125 -20.128906 5.09375 -21.484375 C 3.914062 -22.847656 3.210938 -24.457031 2.984375 -26.3125 C 2.671875 -29.164062 3.160156 -31.5 4.453125 -33.3125 C 5.742188 -35.132812 7.554688 -36.472656 9.890625 -37.328125 C 12.222656 -38.191406 14.796875 -38.625 17.609375 -38.625 C 19.921875 -38.625 22.097656 -38.238281 24.140625 -37.46875 C 26.179688 -36.695312 27.835938 -35.582031 29.109375 -34.125 C 30.378906 -32.675781 31.015625 -30.9375 31.015625 -28.90625 C 31.015625 -27.71875 30.628906 -26.773438 29.859375 -26.078125 C 29.085938 -25.378906 28.109375 -25.03125 26.921875 -25.03125 C 25.472656 -25.03125 24.304688 -25.492188 23.421875 -26.421875 C 22.535156 -27.347656 22.09375 -28.398438 22.09375 -29.578125 C 22.09375 -29.578125 22.285156 -29.644531 22.671875 -29.78125 C 23.054688 -29.914062 23.441406 -30.242188 23.828125 -30.765625 C 24.210938 -31.285156 24.40625 -32.113281 24.40625 -33.25 C 24.40625 -34.613281 23.789062 -35.691406 22.5625 -36.484375 C 21.34375 -37.273438 19.738281 -37.671875 17.75 -37.671875 C 15.9375 -37.671875 14.359375 -37.285156 13.015625 -36.515625 C 11.679688 -35.742188 11.015625 -34.429688 11.015625 -32.578125 C 11.015625 -31.035156 11.546875 -29.695312 12.609375 -28.5625 C 13.679688 -27.425781 15.054688 -26.40625 16.734375 -25.5 C 18.410156 -24.59375 20.195312 -23.707031 22.09375 -22.84375 C 24 -21.988281 25.820312 -21.082031 27.5625 -20.125 C 29.3125 -19.175781 30.773438 -18.085938 31.953125 -16.859375 C 33.140625 -15.640625 33.800781 -14.191406 33.9375 -12.515625 C 34.289062 -9.703125 33.773438 -7.304688 32.390625 -5.328125 C 31.015625 -3.359375 29.078125 -1.863281 26.578125 -0.84375 C 24.085938 0.175781 21.347656 0.6875 18.359375 0.6875 Z M 18.359375 0.6875 "/></g></g><g style="fill:#f1f1f1;fill-opacity:1;"><g transform="translate(178.479231, 202.003976)"><path style="stroke:none" d="M 3.40625 0 L 3.40625 -38.078125 L 16.734375 -38.078125 C 19.898438 -38.117188 22.726562 -37.8125 25.21875 -37.15625 C 27.71875 -36.5 29.703125 -35.515625 31.171875 -34.203125 C 32.648438 -32.890625 33.390625 -31.257812 33.390625 -29.3125 C 33.390625 -26.539062 32.367188 -24.507812 30.328125 -23.21875 C 28.285156 -21.925781 25.703125 -21.097656 22.578125 -20.734375 C 24.160156 -20.554688 25.753906 -20.238281 27.359375 -19.78125 C 28.972656 -19.332031 30.472656 -18.710938 31.859375 -17.921875 C 33.242188 -17.128906 34.351562 -16.117188 35.1875 -14.890625 C 36.03125 -13.671875 36.453125 -12.222656 36.453125 -10.546875 C 36.453125 -8.410156 35.65625 -6.5625 34.0625 -5 C 32.476562 -3.4375 30.347656 -2.234375 27.671875 -1.390625 C 24.992188 -0.554688 22.023438 -0.09375 18.765625 0 Z M 13.671875 -21.140625 L 18.421875 -21.140625 C 19.554688 -21.140625 20.40625 -21.570312 20.96875 -22.4375 C 21.539062 -23.300781 21.941406 -24.351562 22.171875 -25.59375 C 22.398438 -26.84375 22.515625 -28.015625 22.515625 -29.109375 C 22.515625 -31.503906 22.101562 -33.519531 21.28125 -35.15625 C 20.46875 -36.789062 19.039062 -37.609375 17 -37.609375 L 13.671875 -37.609375 Z M 13.671875 -0.6875 L 17.265625 -0.6875 C 20.210938 -0.6875 22.160156 -1.488281 23.109375 -3.09375 C 24.066406 -4.707031 24.546875 -7.097656 24.546875 -10.265625 C 24.546875 -13.753906 24.015625 -16.316406 22.953125 -17.953125 C 21.890625 -19.585938 19.835938 -20.40625 16.796875 -20.40625 L 13.671875 -20.40625 Z M 13.671875 -0.6875 "/></g></g><g style="fill:#f1f1f1;fill-opacity:1;"><g transform="translate(215.398876, 202.003976)"><path style="stroke:none" d="M 1.015625 0 L 18.421875 -38.625 L 37.875 0 L 26.59375 0 L 21.421875 -11.421875 L 6.9375 -11.421875 L 1.765625 0 Z M 7.28125 -12.109375 L 21.140625 -12.109375 L 14.21875 -27.34375 Z M 7.28125 -12.109375 "/></g></g><g style="fill:#f1f1f1;fill-opacity:1;"><g transform="translate(253.066437, 202.003976)"><path style="stroke:none" d="M 3.40625 0 L 3.40625 -38.078125 L 13.671875 -38.078125 L 13.671875 -19.578125 L 27.40625 -19.578125 L 27.40625 -38.078125 L 37.671875 -38.078125 L 37.671875 0 L 27.40625 0 L 27.40625 -18.90625 L 13.671875 -18.90625 L 13.671875 0 Z M 3.40625 0 "/></g></g><path style=" stroke:none;fill-rule:nonzero;fill:#2e2e2e;fill-opacity:1;" d="M 138.921875 219.175781 L 237.492188 219.175781 C 239.316406 219.175781 240.792969 220.652344 240.792969 222.476562 L 240.792969 230.226562 C 240.792969 232.046875 239.316406 233.527344 237.492188 233.527344 L 138.921875 233.527344 C 137.101562 233.527344 135.621094 232.046875 135.621094 230.226562 L 135.621094 222.476562 C 135.621094 220.652344 137.101562 219.175781 138.921875 219.175781 Z M 138.921875 219.175781 "/><g style="fill:#f1f1f1;fill-opacity:1;"><g transform="translate(143.196377, 228.976447)"><path style="stroke:none" d="M 1.484375 0 L 0.46875 0 L 0.46875 -5.34375 L 2.140625 -5.34375 L 3.25 -1.21875 L 4.34375 -5.34375 L 6.03125 -5.34375 L 6.03125 0 L 5.015625 0 L 5.015625 -4.578125 L 3.75 0 L 2.765625 0 L 1.484375 -4.5625 Z M 1.484375 0 "/></g></g><g style="fill:#f1f1f1;fill-opacity:1;"><g transform="translate(153.647436, 228.976447)"><path style="stroke:none" d="M 1.484375 0 L 0.46875 0 L 0.46875 -5.34375 L 1.484375 -5.34375 Z M 1.484375 0 "/></g></g><g style="fill:#f1f1f1;fill-opacity:1;"><g transform="translate(159.555461, 228.976447)"><path style="stroke:none" d="M 2.59375 0.09375 C 2.34375 0.09375 2.082031 0.0625 1.8125 0 C 1.550781 -0.0625 1.304688 -0.160156 1.078125 -0.296875 C 0.859375 -0.441406 0.671875 -0.628906 0.515625 -0.859375 C 0.367188 -1.097656 0.28125 -1.390625 0.25 -1.734375 L 1.28125 -1.734375 C 1.34375 -1.484375 1.441406 -1.285156 1.578125 -1.140625 C 1.710938 -1.003906 1.867188 -0.90625 2.046875 -0.84375 C 2.234375 -0.789062 2.421875 -0.765625 2.609375 -0.765625 C 2.878906 -0.765625 3.109375 -0.820312 3.296875 -0.9375 C 3.484375 -1.050781 3.578125 -1.238281 3.578125 -1.5 C 3.578125 -1.6875 3.515625 -1.832031 3.390625 -1.9375 C 3.273438 -2.039062 3.117188 -2.117188 2.921875 -2.171875 C 2.722656 -2.234375 2.507812 -2.285156 2.28125 -2.328125 C 2.0625 -2.378906 1.84375 -2.4375 1.625 -2.5 C 1.40625 -2.5625 1.203125 -2.644531 1.015625 -2.75 C 0.835938 -2.851562 0.691406 -2.992188 0.578125 -3.171875 C 0.472656 -3.359375 0.421875 -3.59375 0.421875 -3.875 C 0.421875 -4.21875 0.503906 -4.503906 0.671875 -4.734375 C 0.835938 -4.960938 1.0625 -5.132812 1.34375 -5.25 C 1.625 -5.375 1.945312 -5.4375 2.3125 -5.4375 C 2.65625 -5.4375 2.976562 -5.375 3.28125 -5.25 C 3.582031 -5.132812 3.835938 -4.953125 4.046875 -4.703125 C 4.265625 -4.453125 4.398438 -4.132812 4.453125 -3.75 L 3.421875 -3.75 C 3.359375 -4.03125 3.222656 -4.238281 3.015625 -4.375 C 2.804688 -4.507812 2.5625 -4.578125 2.28125 -4.578125 C 2.03125 -4.578125 1.820312 -4.523438 1.65625 -4.421875 C 1.5 -4.316406 1.421875 -4.160156 1.421875 -3.953125 C 1.421875 -3.785156 1.476562 -3.65625 1.59375 -3.5625 C 1.707031 -3.476562 1.859375 -3.40625 2.046875 -3.34375 C 2.234375 -3.289062 2.429688 -3.238281 2.640625 -3.1875 C 2.867188 -3.144531 3.09375 -3.085938 3.3125 -3.015625 C 3.539062 -2.953125 3.75 -2.863281 3.9375 -2.75 C 4.132812 -2.632812 4.289062 -2.476562 4.40625 -2.28125 C 4.53125 -2.09375 4.59375 -1.847656 4.59375 -1.546875 C 4.59375 -1.046875 4.414062 -0.644531 4.0625 -0.34375 C 3.71875 -0.0507812 3.226562 0.09375 2.59375 0.09375 Z M 2.59375 0.09375 "/></g></g><g style="fill:#f1f1f1;fill-opacity:1;"><g transform="translate(168.375513, 228.976447)"><path style="stroke:none" d="M 2.6875 0 L 0.46875 0 L 0.46875 -5.34375 L 2.59375 -5.34375 C 3.238281 -5.34375 3.707031 -5.195312 4 -4.90625 C 4.21875 -4.6875 4.328125 -4.382812 4.328125 -4 C 4.328125 -3.695312 4.257812 -3.4375 4.125 -3.21875 C 3.988281 -3.007812 3.796875 -2.875 3.546875 -2.8125 C 3.890625 -2.75 4.148438 -2.609375 4.328125 -2.390625 C 4.515625 -2.179688 4.609375 -1.898438 4.609375 -1.546875 C 4.609375 -1.296875 4.5625 -1.070312 4.46875 -0.875 C 4.375 -0.6875 4.257812 -0.535156 4.125 -0.421875 C 3.976562 -0.296875 3.804688 -0.203125 3.609375 -0.140625 C 3.421875 -0.078125 3.242188 -0.0351562 3.078125 -0.015625 C 2.910156 -0.00390625 2.78125 0 2.6875 0 Z M 1.484375 -4.4375 L 1.484375 -3.125 L 2.53125 -3.125 C 2.78125 -3.125 2.972656 -3.179688 3.109375 -3.296875 C 3.242188 -3.410156 3.3125 -3.570312 3.3125 -3.78125 C 3.3125 -4 3.25 -4.15625 3.125 -4.25 C 2.976562 -4.375 2.722656 -4.4375 2.359375 -4.4375 Z M 1.484375 -2.296875 L 1.484375 -0.90625 L 2.5625 -0.90625 C 2.695312 -0.90625 2.84375 -0.914062 3 -0.9375 C 3.15625 -0.957031 3.285156 -1.015625 3.390625 -1.109375 C 3.460938 -1.160156 3.515625 -1.226562 3.546875 -1.3125 C 3.578125 -1.394531 3.59375 -1.5 3.59375 -1.625 C 3.59375 -1.84375 3.539062 -1.992188 3.4375 -2.078125 C 3.34375 -2.171875 3.222656 -2.226562 3.078125 -2.25 C 2.941406 -2.28125 2.804688 -2.296875 2.671875 -2.296875 Z M 1.484375 -2.296875 "/></g></g><g style="fill:#f1f1f1;fill-opacity:1;"><g transform="translate(177.209558, 228.976447)"><path style="stroke:none" d="M 1.109375 0 L 0.046875 0 L 1.9375 -5.34375 L 3.03125 -5.34375 L 4.921875 0 L 3.859375 0 L 3.5 -1.09375 L 1.46875 -1.09375 Z M 2.484375 -4.234375 L 1.75 -1.984375 L 3.21875 -1.984375 Z M 2.484375 -4.234375 "/></g></g><g style="fill:#f1f1f1;fill-opacity:1;"><g transform="translate(186.12761, 228.976447)"><path style="stroke:none" d="M 1.484375 0 L 0.46875 0 L 0.46875 -5.34375 L 1.484375 -5.34375 L 1.484375 -3.125 L 3.765625 -3.125 L 3.765625 -5.34375 L 4.78125 -5.34375 L 4.78125 0 L 3.765625 0 L 3.765625 -2.21875 L 1.484375 -2.21875 Z M 1.484375 0 "/></g></g><g style="fill:#f1f1f1;fill-opacity:1;"><g transform="translate(195.339662, 228.976447)"><path style="stroke:none" d=""/></g></g><g style="fill:#f1f1f1;fill-opacity:1;"><g transform="translate(201.16368, 228.976447)"><path style="stroke:none" d="M 1.484375 0 L 0.46875 0 L 0.46875 -5.34375 L 1.484375 -5.34375 L 1.484375 -2.96875 L 3.359375 -5.34375 L 4.59375 -5.34375 L 2.46875 -2.765625 L 4.671875 0 L 3.421875 0 L 1.484375 -2.484375 Z M 1.484375 0 "/></g></g><g style="fill:#f1f1f1;fill-opacity:1;"><g transform="translate(209.801725, 228.976447)"><path style="stroke:none" d="M 1.484375 0 L 0.46875 0 L 0.46875 -5.34375 L 1.484375 -5.34375 L 1.484375 -3.125 L 3.765625 -3.125 L 3.765625 -5.34375 L 4.78125 -5.34375 L 4.78125 0 L 3.765625 0 L 3.765625 -2.21875 L 1.484375 -2.21875 Z M 1.484375 0 "/></g></g><g style="fill:#f1f1f1;fill-opacity:1;"><g transform="translate(219.013776, 228.976447)"><path style="stroke:none" d="M 1.109375 0 L 0.046875 0 L 1.9375 -5.34375 L 3.03125 -5.34375 L 4.921875 0 L 3.859375 0 L 3.5 -1.09375 L 1.46875 -1.09375 Z M 2.484375 -4.234375 L 1.75 -1.984375 L 3.21875 -1.984375 Z M 2.484375 -4.234375 "/></g></g><g style="fill:#f1f1f1;fill-opacity:1;"><g transform="translate(227.931828, 228.976447)"><path style="stroke:none" d="M 1.484375 0 L 0.46875 0 L 0.46875 -5.34375 L 1.609375 -5.34375 L 3.796875 -1.515625 L 3.796875 -5.34375 L 4.8125 -5.34375 L 4.8125 0 L 3.671875 0 L 1.484375 -3.828125 Z M 1.484375 0 "/></g></g></g></svg>